<svg xmlns="http://www.w3.org/2000/svg" viewBox="0 0 64 64" width="64" height="64">
  <rect width="64" height="64" rx="14" fill="#020617"/>
  <path d="M32 6 L50 14 L50 32 C50 43 42 52 32 58 C22 52 14 43 14 32 L14 14 Z" fill="url(#shield-grad)" opacity="0.15"/>
  <path d="M32 8 L49 15.5 L49 32 C49 42.5 41.5 51 32 57 C22.5 51 15 42.5 15 32 L15 15.5 Z" fill="none" stroke="url(#shield-grad)" stroke-width="1.5"/>
  <path d="M32 11 L47 17.5 L47 32 C47 41.5 40.5 49.5 32 55 C23.5 49.5 17 41.5 17 32 L17 17.5 Z" fill="url(#shield-fill)"/>
  <!-- Lightning bolt -->
  <path d="M36 18 L26 35 L32 35 L28 50 L42 30 L35 30 Z" fill="#020617" opacity="0.9"/>
  <defs>
    <linearGradient id="shield-grad" x1="32" y1="6" x2="32" y2="58" gradientUnits="userSpaceOnUse">
      <stop offset="0%" stop-color="#fbbf24"/>
      <stop offset="100%" stop-color="#f59e0b"/>
    </linearGradient>
    <linearGradient id="shield-fill" x1="32" y1="11" x2="32" y2="55" gradientUnits="userSpaceOnUse">
      <stop offset="0%" stop-color="#fbbf24"/>
      <stop offset="100%" stop-color="#d97706"/>
    </linearGradient>
  </defs>
</svg>
